<svg width="107" height="80" viewBox="0 0 107 80" fill="none" xmlns="http://www.w3.org/2000/svg">
<g clip-path="url(#clip0_1203_8712)">
<path d="M22.127 78.9862H26.2703V56.4604H22.127V78.9862ZM85.1388 61.868V56.4609H81.0096V61.868H78.9447V65.9397H81.0096V79.4638H85.1388V65.9397H87.2022V61.868H85.1388ZM76.3477 61.868C74.9154 62.02 73.9027 62.5541 73.16 63.8719V61.868H69.2959V79.4638H73.4232V69.4388C73.4232 67.697 73.9032 66.6838 75.1265 66.2077C75.7039 65.9402 76.3482 65.9402 77.1318 65.9402V61.8684H76.3477V61.868Z" fill="black"/>
<path d="M101.147 73.8447C100.134 74.8009 98.9712 75.222 97.592 75.222H97.5365C96.1622 75.222 94.9399 74.8009 93.9838 73.8901C92.9857 72.9895 92.456 71.8228 92.5076 70.3924C92.5076 69.0152 93.0301 67.8505 93.9838 66.9513C94.9955 66.0532 96.1622 65.5741 97.5365 65.5741H97.592C98.44 65.5741 99.2899 65.7886 100.08 66.2652C101.776 67.1619 102.636 68.5376 102.636 70.3924C102.635 71.7687 102.144 72.9354 101.147 73.8447ZM102.368 61.8679V63.8719C101.302 62.385 99.7154 61.6004 97.592 61.4883H97.0038C94.689 61.4883 92.7211 62.231 91.1343 63.8207C89.2663 65.5191 88.3809 67.6404 88.3809 70.292C88.3809 72.7804 89.2225 74.8993 90.9106 76.6552C92.6085 78.452 94.7275 79.3517 97.2153 79.3517H97.592C99.2899 79.2376 100.879 78.5071 102.368 77.1323V78.9867H106.499V61.8684H102.368V61.8679Z" fill="black"/>
<path d="M52.9231 69.0143L53.0776 68.4367C53.2321 67.6395 53.7096 66.9509 54.4548 66.3748C55.407 65.6287 56.5718 65.2486 57.852 65.2486H57.9495C59.0187 65.2486 59.9714 65.4596 60.8131 65.9967C61.7142 66.5283 62.3604 67.3159 62.6148 68.3247L62.7259 69.0138H52.9231V69.0143ZM64.3107 64.1404C62.6148 62.3436 60.508 61.4883 58.007 61.4883H57.852C55.3661 61.5463 53.29 62.385 51.5873 64.0843C49.846 65.8417 49.0049 67.9621 49.0049 70.5036C49.0049 73.1006 49.9016 75.2668 51.7559 76.9632C53.4411 78.5515 55.467 79.3517 57.8515 79.3517C59.3428 79.3517 60.8126 78.9862 62.1913 78.1825C63.624 77.4403 64.7323 76.3882 65.4759 75.1065C65.6865 74.8004 65.8994 74.3228 66.1109 73.7327H62.0919C60.8706 75.0105 59.4388 75.642 57.851 75.642H57.796C55.311 75.642 53.7082 74.4788 53.0766 72.2034H66.6987L66.7547 71.4578L66.8103 70.5026C66.9087 68.1166 66.0661 65.9971 64.3107 64.1404Z" fill="black"/>
<path d="M41.8415 73.8896C40.8878 74.8004 39.7241 75.2215 38.3449 75.2215H38.2888C36.857 75.2215 35.6938 74.8004 34.7386 73.8896C33.7391 72.989 33.262 71.8223 33.262 70.392C33.262 69.0148 33.7395 67.85 34.6957 66.9509C35.6943 66.0527 36.858 65.5761 38.2893 65.5761C39.6666 65.5761 40.8337 66.0527 41.842 66.9509C42.8537 67.907 43.3309 69.0143 43.3309 70.4475C43.3299 71.8223 42.8533 72.9354 41.8415 73.8896ZM45.0156 64.0844C43.3874 62.3431 41.364 61.4883 38.8814 61.4883H38.2888C36.492 61.655 34.8497 62.4406 33.4174 63.8719V56.4604H29.3447V78.9862H33.4174V77.0188C35.1153 78.3955 36.7035 79.1407 38.2888 79.2957C38.4994 79.3517 38.7674 79.3517 38.9794 79.3517C41.421 79.3517 43.4303 78.4516 45.0726 76.6553C46.6175 74.9023 47.4035 72.8335 47.4035 70.3491C47.404 67.907 46.618 65.7881 45.0156 64.0844Z" fill="black"/>
<path d="M13.5462 73.8447C12.5876 74.8009 11.3692 75.222 9.99251 75.222C8.56023 75.222 7.39402 74.8009 6.39742 73.8901C5.38765 72.9895 4.90957 71.8228 4.90957 70.3924C4.90957 69.0152 5.44077 67.8505 6.44079 66.9513C7.39451 66.0532 8.56071 65.5741 9.993 65.5741C10.8907 65.5741 11.7484 65.7886 12.534 66.2652C14.2338 67.1619 15.0774 68.5376 15.0774 70.3924C15.0774 71.7687 14.555 72.9354 13.5462 73.8447ZM14.823 61.8679V63.8719C13.7012 62.385 12.1144 61.6004 9.993 61.4883H9.41697C7.12891 61.4883 5.1781 62.231 3.53674 63.8207C1.72336 65.4611 0.823242 67.5844 0.823242 70.1268V70.3929C0.823242 72.8345 1.67803 74.9554 3.32183 76.6562C5.0085 78.453 7.12843 79.3526 9.62798 79.3526H9.993C11.6928 79.2386 13.2796 78.5081 14.823 77.1333V78.9876H18.8957V61.8684H14.823V61.8679Z" fill="black"/>
<path d="M59.9174 42.5722C59.9174 47.4456 55.9442 51.4189 51.0698 51.4189C46.1959 51.4189 42.2217 47.4456 42.2217 42.5722C42.2217 37.7008 46.1959 33.7266 51.0698 33.7266C55.9442 33.7261 59.9174 37.7003 59.9174 42.5722Z" fill="#E30613"/>
<path d="M99.5608 34.7374C99.5608 43.7965 92.1859 51.1509 83.0742 51.1509C78.1438 51.1509 73.5798 48.7225 70.5608 45.2278L51.0707 21.2683L27.5322 50.0992L10.373 50.0432L51.0697 0.597846L80.6848 36.5922C81.2198 37.2783 82.272 37.8553 83.2282 37.8553C84.9826 37.8553 86.3603 36.4781 86.3603 34.7374C86.3603 34.0907 86.2058 33.4581 85.8271 32.924L58.4275 0.443359H74.5882L96.0076 24.7654C98.1836 27.573 99.5608 30.9736 99.5608 34.7374Z" fill="#E30613"/>
</g>
<defs>
<clipPath id="clip0_1203_8712">
<rect width="106.986" height="80" fill="white"/>
</clipPath>
</defs>
</svg>
